# xmcd
#
# Track frame offsets:
#	150
#	13225
#	30654
#	43896
#	58738
#	74669
#	87338
#	103018
#	115703
#	126417
#	138714
#	150091
#	162235
#	180421
#
# Disc length: 2528 seconds
#
# Revision: 0
# Processed by: cddbd v1.5.2PL0 Copyright (c) Steve Scherf et al.
# Submitted via: EasyCDDAExtractor 11.9.9.666
#
DISCID=c109de0e
DTITLE=Banda Encontro - www.coração
DYEAR=1900
DGENRE=
TTITLE0=www.coração
TTITLE1=Amigos
TTITLE2=Amizade colorida
TTITLE3=Peito em brasa
TTITLE4=Linda
TTITLE5=Vem pro batidão
TTITLE6=Brigas
TTITLE7=Carol
TTITLE8=Para com isso
TTITLE9=Vem pra Oktoberfest
TTITLE10=Hip Hey Hop
TTITLE11=Lei seca
TTITLE12=Misto quente
TTITLE13=Segue o baile
EXTD=
EXTT0=
EXTT1=
EXTT2=
EXTT3=
EXTT4=
EXTT5=
EXTT6=
EXTT7=
EXTT8=
EXTT9=
EXTT10=
EXTT11=
EXTT12=
EXTT13=
PLAYORDER=
